{
	"asset":{
		"version":"2.0",
		"generator":"Created using the official Cinema 4D glTF Exporter 1.000x284978"
	},
	"scenes":[{
		"nodes":[0]
	}],
	"nodes":[{
		"name":"Scene",
		"children":[1,
		3,
		6]
	},
	{
		"name":"CYS-12",
		"translation":[11.333697319030762,
		5.733834266662598,
		-15.462591171264649],
		"rotation":[0.0,
		0.0,
		0.0,
		-1.0],
		"scale":[1.0,
		1.0,
		1.0],
		"children":[2]
	},
	{
		"name":"CYS-12",
		"translation":[-11.333697319030762,
		-5.733834266662598,
		0.0],
		"rotation":[0.0,
		0.0,
		0.0,
		-1.0],
		"scale":[1.0,
		1.0,
		1.0],
		"mesh":0
	},
	{
		"name":"KRAS_GC12_inhibitor",
		"translation":[59.06501770019531,
		-24.621381759643556,
		-23.83522605895996],
		"rotation":[-0.03134622052311897,
		-0.1231464147567749,
		-0.8469421863555908,
		0.5162763595581055],
		"scale":[0.6000000238418579,
		0.6000000238418579,
		0.6000000238418579],
		"children":[4,
		5]
	},
	{
		"name":"KRAS_GC12_inhibitor_Outer",
		"mesh":1
	},
	{
		"name":"KRAS_GC12_inhibitor_inner",
		"translation":[-5.3290705182007517e-15,
		41.070960998535159,
		1.0658141036401503e-14],
		"rotation":[-1.3877787807814458e-17,
		-1.3877787807814458e-17,
		1.925929944387236e-34,
		-1.0],
		"scale":[1.0,
		1.0,
		1.0],
		"mesh":2
	},
	{
		"name":"KRAS",
		"translation":[66.07307434082031,
		14.811186790466309,
		-75.46908569335938],
		"rotation":[0.0,
		0.0,
		0.0,
		-1.0],
		"scale":[1.0,
		1.0,
		1.0],
		"children":[7]
	},
	{
		"name":"KRAS",
		"translation":[-0.000273220706731081,
		0.011005576699972153,
		-0.00021361318067647517],
		"rotation":[0.0,
		0.0,
		0.0,
		-1.0],
		"scale":[1.0,
		1.0,
		1.0],
		"mesh":3
	}],
	"meshes":[{
		"name":"CYS-12",
		"primitives":[{
			"attributes":{
				"POSITION":1,
				"NORMAL":2,
				"TEXCOORD_0":3
			},
			"indices":0,
			"material":0
		}]
	},
	{
		"name":"KRAS_GC12_inhibitor_Outer",
		"primitives":[{
			"attributes":{
				"POSITION":5,
				"NORMAL":6,
				"TEXCOORD_0":7
			},
			"indices":4,
			"material":1
		}]
	},
	{
		"name":"KRAS_GC12_inhibitor_inner",
		"primitives":[{
			"attributes":{
				"POSITION":9,
				"NORMAL":10,
				"TEXCOORD_0":11
			},
			"indices":8,
			"material":2
		}]
	},
	{
		"name":"KRAS",
		"primitives":[{
			"attributes":{
				"POSITION":13,
				"NORMAL":14,
				"TEXCOORD_0":15
			},
			"indices":12,
			"material":3
		}]
	}],
	"accessors":[{
		"bufferView":0,
		"type":"SCALAR",
		"componentType":5123,
		"count":10236,
		"max":[1709],
		"byteOffset":0,
		"min":[0]
	},
	{
		"bufferView":1,
		"type":"VEC3",
		"componentType":5126,
		"count":1710,
		"max":[34.10862350463867,
		40.135066986083987,
		12.788128852844239],
		"byteOffset":0,
		"min":[-8.919135093688965,
		-18.146900177001954,
		-9.276830673217774]
	},
	{
		"bufferView":1,
		"type":"VEC3",
		"componentType":5126,
		"count":1710,
		"max":[0.9998043179512024,
		0.9992302060127258,
		0.9998648762702942],
		"byteOffset":12,
		"min":[-0.998062014579773,
		-0.9972039461135864,
		-0.9997456669807434]
	},
	{
		"bufferView":1,
		"type":"VEC2",
		"componentType":5126,
		"count":1710,
		"max":[0.9977831840515137,
		0.9901888370513916],
		"byteOffset":24,
		"min":[0.00010573683539405465,
		0.011234167963266373]
	},
	{
		"bufferView":2,
		"type":"SCALAR",
		"componentType":5123,
		"count":20124,
		"max":[3355],
		"byteOffset":0,
		"min":[0]
	},
	{
		"bufferView":3,
		"type":"VEC3",
		"componentType":5126,
		"count":3356,
		"max":[26.386272430419923,
		61.63817596435547,
		62.5612678527832],
		"byteOffset":0,
		"min":[-35.71481704711914,
		-55.17457580566406,
		-42.538944244384769]
	},
	{
		"bufferView":3,
		"type":"VEC3",
		"componentType":5126,
		"count":3356,
		"max":[0.9997780323028565,
		0.9998466968536377,
		0.9998127222061157],
		"byteOffset":12,
		"min":[-0.9998859763145447,
		-0.9961421489715576,
		-0.9997571110725403]
	},
	{
		"bufferView":3,
		"type":"VEC2",
		"componentType":5126,
		"count":3356,
		"max":[0.9987777471542358,
		0.9931817054748535],
		"byteOffset":24,
		"min":[0.0014508492313325406,
		0.001215713331475854]
	},
	{
		"bufferView":4,
		"type":"SCALAR",
		"componentType":5123,
		"count":3252,
		"max":[857],
		"byteOffset":0,
		"min":[0]
	},
	{
		"bufferView":5,
		"type":"VEC3",
		"componentType":5126,
		"count":858,
		"max":[18.386760711669923,
		11.15470027923584,
		52.885005950927737],
		"byteOffset":0,
		"min":[-27.01017951965332,
		-88.34208679199219,
		-33.90560531616211]
	},
	{
		"bufferView":5,
		"type":"VEC3",
		"componentType":5126,
		"count":858,
		"max":[0.9986199736595154,
		1.0,
		0.9941859841346741],
		"byteOffset":12,
		"min":[-0.998701810836792,
		-1.0,
		-0.9941859841346741]
	},
	{
		"bufferView":5,
		"type":"VEC2",
		"componentType":5126,
		"count":858,
		"max":[1.0,
		1.0],
		"byteOffset":24,
		"min":[0.0,
		0.0]
	},
	{
		"bufferView":6,
		"type":"SCALAR",
		"componentType":5123,
		"count":72936,
		"max":[12182],
		"byteOffset":0,
		"min":[0]
	},
	{
		"bufferView":7,
		"type":"VEC3",
		"componentType":5126,
		"count":12183,
		"max":[105.83496856689453,
		114.18833923339844,
		104.71363830566406],
		"byteOffset":0,
		"min":[-105.20663452148438,
		-118.79557037353516,
		-111.92335510253906]
	},
	{
		"bufferView":7,
		"type":"VEC3",
		"componentType":5126,
		"count":12183,
		"max":[1.0,
		1.0,
		1.0],
		"byteOffset":12,
		"min":[-1.0,
		-1.0,
		-1.0]
	},
	{
		"bufferView":7,
		"type":"VEC2",
		"componentType":5126,
		"count":12183,
		"max":[0.9999427795410156,
		0.9960085153579712],
		"byteOffset":24,
		"min":[0.00018820652621798217,
		0.00948239117860794]
	}],
	"bufferViews":[{
		"buffer":0,
		"byteOffset":0,
		"byteLength":20472,
		"target":34963
	},
	{
		"buffer":0,
		"byteOffset":20472,
		"byteLength":54720,
		"target":34962,
		"byteStride":32
	},
	{
		"buffer":1,
		"byteOffset":0,
		"byteLength":40248,
		"target":34963
	},
	{
		"buffer":1,
		"byteOffset":40248,
		"byteLength":107392,
		"target":34962,
		"byteStride":32
	},
	{
		"buffer":2,
		"byteOffset":0,
		"byteLength":6504,
		"target":34963
	},
	{
		"buffer":2,
		"byteOffset":6504,
		"byteLength":27456,
		"target":34962,
		"byteStride":32
	},
	{
		"buffer":3,
		"byteOffset":0,
		"byteLength":145872,
		"target":34963
	},
	{
		"buffer":3,
		"byteOffset":145872,
		"byteLength":389856,
		"target":34962,
		"byteStride":32
	}],
	"buffers":[{
		"uri":"data:application/octet-stream;base64,",
		"byteLength":75192
	},
	{
		"uri":"data:application/octet-stream;base64,",
		"byteLength":147640
	},
	{
		"uri":"data:application/octet-stream;base64,",
		"byteLength":33960
	},
	{
		"uri":"data:application/octet-stream;base64,",
		"byteLength":535728
	}],
	"materials":[{
		"pbrMetallicRoughness":{
			"baseColorFactor":[0.7040000000000001,
			0.8,
			0.7952000000000001,
			0.7],
			"metallicFactor":0.0,
			"roughnessFactor":0.5
		},
		"name":"Mat.12",
		"emissiveFactor":[0.0,
		0.0,
		0.0],
		"alphaMode":"BLEND",
		"doubleSided":false
	},
	{
		"pbrMetallicRoughness":{
			"baseColorFactor":[0.7040000000000001,
			0.8,
			0.7952000000000001,
			0.5],
			"metallicFactor":1.0,
			"roughnessFactor":1.0
		},
		"name":"GC12_outer",
		"emissiveFactor":[0.0,
		0.0,
		0.0],
		"alphaMode":"BLEND",
		"doubleSided":false
	},
	{
		"pbrMetallicRoughness":{
			"baseColorFactor":[0.6423288738972586,
			1.0,
			0.7518147516974361,
			1.0],
			"metallicFactor":1.0,
			"roughnessFactor":1.0
		},
		"name":"GC12_inner",
		"emissiveFactor":[0.12352941176470589,
		0.5490196078431373,
		0.21137254901960787],
		"alphaMode":"OPAQUE",
		"doubleSided":false
	},
	{
		"pbrMetallicRoughness":{
			"baseColorFactor":[0.6470588235294118,
			0.23529411764705877,
			0.6470588235294118,
			0.33499999999999999],
			"metallicFactor":1.0,
			"roughnessFactor":0.68
		},
		"name":"KRAS.1",
		"emissiveFactor":[0.0,
		0.0,
		0.0],
		"alphaMode":"BLEND",
		"doubleSided":false
	}]
}